<svg width="848" height="349" fill="none" xmlns="http://www.w3.org/2000/svg"><path d="M109.2 82.154c0 .666-.267 1.266-.8 1.8-.4.4-.933.6-1.6.6H41.4c-.667 0-1 .333-1 1v31c0 .666.333 1 1 1h43c.667 0 1.2.266 1.6.8.533.4.8.933.8 1.6v19.4c0 .666-.267 1.266-.8 1.8-.4.4-.933.6-1.6.6h-43c-.667 0-1 .333-1 1v55.2c0 .666-.267 1.266-.8 1.8-.4.4-.933.6-1.6.6H14.6c-.667 0-1.267-.2-1.8-.6-.4-.534-.6-1.134-.6-1.8v-135.2c0-.667.2-1.2.6-1.6.533-.534 1.133-.8 1.8-.8h92.2a1.9 1.9 0 0 1 1.6.8c.533.4.8.933.8 1.6v19.4Zm88.289 118.2c-1.333 0-2.2-.667-2.6-2l-6-19.6c-.267-.534-.6-.8-1-.8h-49.2c-.4 0-.733.266-1 .8l-5.8 19.6c-.4 1.333-1.267 2-2.6 2h-25.4c-.8 0-1.4-.2-1.8-.6-.4-.534-.467-1.267-.2-2.2l43.2-135.2c.4-1.334 1.267-2 2.6-2h31.4c1.333 0 2.2.666 2.6 2l43.2 135.2c.133.266.2.6.2 1 0 1.2-.733 1.8-2.2 1.8h-25.4Zm-52.6-45.4c-.133.8.133 1.2.8 1.2h35.2c.8 0 1.067-.4.8-1.2l-18-59.4c-.133-.534-.333-.734-.6-.6-.267 0-.467.2-.6.6l-17.6 59.4Zm136.991 47c-10.667 0-20-1.667-28-5-8-3.467-14.2-8.334-18.6-14.6-4.267-6.4-6.4-13.8-6.4-22.2v-4.4c0-.667.2-1.2.6-1.6.533-.534 1.133-.8 1.8-.8h22.8c.666 0 1.2.266 1.6.8.533.4.8.933.8 1.6v3c0 5.333 2.466 9.866 7.4 13.6 4.933 3.6 11.6 5.4 20 5.4 7.066 0 12.333-1.467 15.8-4.4 3.466-3.067 5.2-6.8 5.2-11.2 0-3.2-1.067-5.867-3.2-8-2.134-2.267-5.067-4.2-8.8-5.8-3.6-1.734-9.4-4.067-17.4-7-8.934-3.067-16.534-6.2-22.8-9.4-6.134-3.2-11.334-7.534-15.6-13-4.134-5.6-6.2-12.467-6.2-20.6 0-8 2.066-15 6.2-21 4.133-6 9.866-10.6 17.2-13.8 7.333-3.2 15.8-4.8 25.4-4.8 10.133 0 19.133 1.8 27 5.4 8 3.6 14.2 8.666 18.6 15.2 4.533 6.4 6.8 13.866 6.8 22.4v3c0 .666-.267 1.266-.8 1.8-.4.4-.934.6-1.6.6h-23c-.667 0-1.267-.2-1.8-.6-.4-.534-.6-1.134-.6-1.8v-1.6c0-5.6-2.334-10.334-7-14.2-4.534-4-10.8-6-18.8-6-6.267 0-11.2 1.333-14.8 4-3.467 2.666-5.2 6.333-5.2 11 0 3.333 1 6.133 3 8.4 2.133 2.266 5.2 4.333 9.2 6.2 4.133 1.733 10.466 4.133 19 7.2 9.466 3.466 16.866 6.533 22.2 9.2 5.466 2.666 10.333 6.666 14.6 12 4.4 5.2 6.6 12 6.6 20.4 0 12.533-4.6 22.466-13.8 29.8-9.2 7.2-21.667 10.8-37.4 10.8Zm165.983-141.6c.666 0 1.2.266 1.6.8.533.4.8.933.8 1.6v19.6c0 .666-.267 1.266-.8 1.8-.4.4-.934.6-1.6.6h-35.8c-.667 0-1 .333-1 1v112.2c0 .666-.267 1.266-.8 1.8-.4.4-.934.6-1.6.6h-23.4c-.667 0-1.267-.2-1.8-.6-.4-.534-.6-1.134-.6-1.8v-112.2c0-.667-.334-1-1-1h-34.8c-.667 0-1.267-.2-1.8-.6-.4-.534-.6-1.134-.6-1.8v-19.6c0-.667.2-1.2.6-1.6.533-.534 1.133-.8 1.8-.8h100.8Z" fill="#222"/><path d="M517.455 201.954c-10.4 0-19.534-2-27.4-6-7.867-4.134-13.934-9.867-18.2-17.2-4.267-7.334-6.4-15.8-6.4-25.4v-46.2c0-9.6 2.133-18.067 6.4-25.4 4.266-7.334 10.333-13 18.2-17 7.866-4 17-6 27.4-6 10.266 0 19.266 1.933 27 5.8 7.866 3.733 13.933 9.133 18.2 16.2 4.4 6.933 6.6 15 6.6 24.2 0 1.2-.8 1.933-2.4 2.2l-23.4 1.4h-.4c-1.334 0-2-.734-2-2.2 0-7.067-2.2-12.734-6.6-17-4.267-4.267-9.934-6.4-17-6.4-7.2 0-13 2.133-17.4 6.4-4.267 4.266-6.4 9.933-6.4 17v48.2c0 6.933 2.133 12.533 6.4 16.8 4.4 4.266 10.2 6.4 17.4 6.4 7.066 0 12.733-2.134 17-6.4 4.4-4.267 6.6-9.867 6.6-16.8 0-1.467.8-2.2 2.4-2.2l23.4 1c.666 0 1.2.2 1.6.6.533.4.8.866.8 1.4 0 9.2-2.2 17.333-6.6 24.4-4.267 7.066-10.334 12.533-18.2 16.4-7.734 3.866-16.734 5.8-27 5.8Zm158.354-1.6c-1.333 0-2.2-.667-2.6-2l-6-19.6c-.266-.534-.6-.8-1-.8h-49.2c-.4 0-.733.266-1 .8l-5.8 19.6c-.4 1.333-1.266 2-2.6 2h-25.4c-.8 0-1.4-.2-1.8-.6-.4-.534-.466-1.267-.2-2.2l43.2-135.2c.4-1.334 1.267-2 2.6-2h31.4c1.334 0 2.2.666 2.6 2l43.2 135.2c.134.266.2.6.2 1 0 1.2-.733 1.8-2.2 1.8h-25.4Zm-52.6-45.4c-.133.8.134 1.2.8 1.2h35.2c.8 0 1.067-.4.8-1.2l-18-59.4c-.133-.534-.333-.734-.6-.6-.266 0-.466.2-.6.6l-17.6 59.4Zm174.58 45.4c-1.333 0-2.267-.6-2.8-1.8l-25-55.4c-.267-.534-.667-.8-1.2-.8h-18.6c-.667 0-1 .333-1 1v54.6c0 .666-.267 1.266-.8 1.8-.4.4-.933.6-1.6.6h-23.4c-.667 0-1.267-.2-1.8-.6-.4-.534-.6-1.134-.6-1.8v-135.2c0-.667.2-1.2.6-1.6.533-.534 1.133-.8 1.8-.8h57.2c8.533 0 16 1.733 22.4 5.2 6.533 3.466 11.533 8.4 15 14.8 3.6 6.4 5.4 13.8 5.4 22.2 0 9.066-2.267 16.866-6.8 23.4-4.533 6.4-10.867 10.933-19 13.6-.667.266-.867.733-.6 1.4l27.2 56.6c.267.533.4.933.4 1.2 0 1.066-.733 1.6-2.2 1.6h-24.6Zm-47.6-115.8c-.667 0-1 .333-1 1v34.2c0 .666.333 1 1 1h26.2c5.6 0 10.133-1.667 13.6-5 3.6-3.334 5.4-7.667 5.4-13 0-5.334-1.8-9.667-5.4-13-3.467-3.467-8-5.2-13.6-5.2h-26.2Z" fill="#F6C43D"/><path d="M54.5 305.354c1.067 1.333 2.4 3.1 4 5.3 1.667 2.133 3.367 4.533 5.1 7.2 1.733 2.6 3.433 5.333 5.1 8.2 1.733 2.866 3.2 5.633 4.4 8.3H62.5c-1.333-2.534-2.8-5.1-4.4-7.7-1.533-2.6-3.1-5.067-4.7-7.4-1.6-2.4-3.2-4.634-4.8-6.7a132.35 132.35 0 0 0-4.2-5.4c-.867.066-1.767.1-2.7.1H30.3v27.1h-9.7v-68.3c2.733-.667 5.767-1.1 9.1-1.3 3.4-.267 6.5-.4 9.3-.4 9.733 0 17.133 1.833 22.2 5.5 5.133 3.666 7.7 9.133 7.7 16.4 0 4.6-1.233 8.533-3.7 11.8-2.4 3.266-5.967 5.7-10.7 7.3Zm-14.7-32.5c-4.133 0-7.3.1-9.5.3v26.1h6.9c3.333 0 6.333-.167 9-.5 2.667-.334 4.9-.967 6.7-1.9 1.867-.934 3.3-2.234 4.3-3.9 1-1.734 1.5-4 1.5-6.8 0-2.6-.5-4.767-1.5-6.5-1-1.734-2.367-3.1-4.1-4.1-1.667-1-3.667-1.7-6-2.1-2.267-.4-4.7-.6-7.3-.6Zm137.191 61.5v-69.3h42.3v8.3h-32.6v20.6h29v8.1h-29v24h35.1v8.3h-44.8Zm198.129 0a377.826 377.826 0 0 0-5.1-8.3 245.935 245.935 0 0 0-6.1-9.5c-2.2-3.334-4.5-6.7-6.9-10.1a313.144 313.144 0 0 0-7-9.8c-2.334-3.2-4.6-6.2-6.8-9s-4.234-5.267-6.1-7.4v54.1h-9.5v-69.3h7.7c3.133 3.333 6.466 7.233 10 11.7 3.6 4.4 7.133 8.966 10.6 13.7a318.663 318.663 0 0 1 9.9 13.8c3.133 4.533 5.766 8.566 7.9 12.1v-51.3h9.5v69.3h-8.1Zm165.053-69.3v8.4h-21.8v60.9h-9.7v-60.9h-21.8v-8.4h53.3Zm143.598 69.3c-1.133-3-2.2-5.934-3.2-8.8-1-2.934-2.033-5.9-3.1-8.9h-31.4l-6.3 17.7h-10.1c2.667-7.334 5.167-14.1 7.5-20.3 2.333-6.267 4.6-12.2 6.8-17.8 2.267-5.6 4.5-10.934 6.7-16 2.2-5.134 4.5-10.2 6.9-15.2h8.9c2.4 5 4.7 10.066 6.9 15.2 2.2 5.066 4.4 10.4 6.6 16a676.24 676.24 0 0 1 6.9 17.8c2.333 6.2 4.833 12.966 7.5 20.3h-10.6Zm-9.1-25.7c-2.133-5.8-4.267-11.4-6.4-16.8a264.833 264.833 0 0 0-6.5-15.7c-2.333 5-4.567 10.233-6.7 15.7-2.067 5.4-4.133 11-6.2 16.8h25.8Zm164.309 17.3v8.4h-41.7v-69.3h9.7v60.9h32Z" fill="#222"/></svg>